<svg width="18" height="17" viewBox="0 0 18 17" fill="none" xmlns="http://www.w3.org/2000/svg">
<path fill-rule="evenodd" clip-rule="evenodd" d="M5.62524 1.02087C5.75935 0.752671 6.03347 0.583252 6.33333 0.583252H11.0833C11.3832 0.583252 11.6573 0.752671 11.7914 1.02087L12.7601 2.95825H15.4375C16.5306 2.95825 17.4167 3.84436 17.4167 4.93742V14.4374C17.4167 15.5305 16.5306 16.4166 15.4375 16.4166H1.97917C0.886103 16.4166 0 15.5305 0 14.4374V4.93742C0 3.84436 0.886103 2.95825 1.97917 2.95825H4.65656L5.62524 1.02087ZM6.42678 2.95825H10.9899L10.5941 2.16659H6.82261L6.42678 2.95825ZM1.97917 4.54159C1.76055 4.54159 1.58333 4.71881 1.58333 4.93742V14.4374C1.58333 14.656 1.76055 14.8333 1.97917 14.8333H15.4375C15.6561 14.8333 15.8333 14.656 15.8333 14.4374V4.93742C15.8333 4.71881 15.6561 4.54159 15.4375 4.54159H1.97917ZM4.75 9.68742C4.75 7.50128 6.5222 5.72909 8.70833 5.72909C10.8945 5.72909 12.6667 7.50128 12.6667 9.68742C12.6667 11.8736 10.8945 13.6458 8.70833 13.6458C6.5222 13.6458 4.75 11.8736 4.75 9.68742ZM8.70833 7.31242C7.39665 7.31242 6.33333 8.37573 6.33333 9.68742C6.33333 10.9991 7.39665 12.0624 8.70833 12.0624C10.02 12.0624 11.0833 10.9991 11.0833 9.68742C11.0833 8.37573 10.02 7.31242 8.70833 7.31242Z" fill="#A375D6"/>
</svg>
