<svg width="18" height="19" viewBox="0 0 18 19" fill="none" xmlns="http://www.w3.org/2000/svg">
<path fill-rule="evenodd" clip-rule="evenodd" d="M17.3975 1.40956C17.4935 1.83612 17.2255 2.25972 16.799 2.3557L12.6668 3.28543V8.70834H16.6252C17.0624 8.70834 17.4168 9.06278 17.4168 9.50001C17.4168 11.8409 16.7094 14.0261 15.2283 15.6343C13.7374 17.2531 11.5346 18.2083 8.7085 18.2083C5.88239 18.2083 3.67962 17.2531 2.18869 15.6343C0.707566 14.0261 0.000171543 11.8409 0.000171543 9.50001C0.000171543 9.06278 0.354613 8.70834 0.791838 8.70834H1.5835V5.77918L0.965619 5.9182C0.539057 6.01418 0.115457 5.74618 0.0194805 5.31962C-0.0764958 4.89306 0.191496 4.46946 0.618058 4.37348L1.5835 4.15626V3.95834C1.5835 3.52112 1.93795 3.16668 2.37517 3.16668C2.75938 3.16668 3.07966 3.44037 3.15169 3.80342L4.75017 3.44376V3.16668C4.75017 2.72945 5.10461 2.37501 5.54184 2.37501C5.95264 2.37501 6.29036 2.6879 6.32968 3.08837L7.91684 2.73126V2.37501C7.91684 1.93778 8.27128 1.58334 8.7085 1.58334C9.14573 1.58334 9.50017 1.93778 9.50017 2.37501L11.0835 2.01876V1.58334C11.0835 1.14612 11.4379 0.791675 11.8752 0.791675C12.3124 0.791675 12.6668 1.14612 12.6668 1.58334V1.66251L16.4514 0.810984C16.878 0.715008 17.3016 0.983 17.3975 1.40956ZM11.0835 3.64168L9.50017 3.99793V8.70834H11.0835V3.64168ZM1.61546 10.2917C1.75491 11.9913 2.34865 13.4708 3.35333 14.5616C4.50129 15.8081 6.25686 16.625 8.7085 16.625C11.1602 16.625 12.9157 15.8081 14.0637 14.5616C15.0684 13.4708 15.6621 11.9913 15.8016 10.2917H1.61546ZM3.16684 8.70834H4.75017V5.06668L3.16684 5.42292V8.70834ZM6.3335 4.71043V8.70834H7.91684V4.35418L6.3335 4.71043Z" fill="#B783EB"/>
</svg>
